<svg width="122" height="46" viewBox="0 0 122 46" fill="none" xmlns="http://www.w3.org/2000/svg">
<rect width="122" height="46" fill="#E5E5E5"/>
<g clip-path="url(#clip0)">
<rect width="1440" height="1536" transform="translate(-44 -12)" fill="#F8F8F8"/>
<rect x="-44" y="-12" width="1440" height="70" fill="#2B373E"/>
<path d="M17 37.1249V16.1612C17 15.8556 17.1222 15.6722 17.3667 15.4889C17.6112 15.3055 17.8557 15.2444 18.2224 15.2444H29.2238C29.5294 15.2444 29.7127 15.3666 29.8961 15.6111C30.0794 15.8556 30.1406 16.1 30.1406 16.4056C30.1406 16.7724 30.0794 17.078 29.8961 17.2613C29.7127 17.5058 29.5294 17.628 29.2238 17.628H19.6281V25.5735H24.5176C24.8232 25.5735 25.0066 25.6957 25.1899 25.8791C25.3733 26.1235 25.4344 26.368 25.4344 26.6736C25.4344 26.9181 25.3733 27.1626 25.1899 27.407C25.0066 27.6515 24.8232 27.7126 24.5176 27.7126H19.6281V37.1249C19.6281 37.4305 19.5059 37.6139 19.2614 37.7972C19.0169 37.9806 18.7113 38.0417 18.3446 38.0417C17.9779 38.0417 17.6723 37.9806 17.4278 37.7972C17.1834 37.6139 17 37.4305 17 37.1249Z" fill="#32D5CB"/>
<path d="M32.5244 37.1249V16.1612C32.5244 15.9167 32.5855 15.7333 32.7689 15.55C32.9522 15.3666 33.1967 15.3055 33.4412 15.2444H39.1253C41.2033 15.2444 42.8535 15.7333 44.137 16.7112C45.4205 17.6891 46.0317 19.2782 46.0317 21.4785C46.0317 24.9012 44.5037 26.9181 41.3866 27.5904L46.0317 36.3304C46.0928 36.4526 46.1539 36.636 46.1539 36.7582C46.1539 37.0638 45.9706 37.3694 45.665 37.675C45.3594 37.9806 44.9927 38.1028 44.6259 38.1028C44.1981 38.1028 43.7703 37.7361 43.4647 37.0638L38.7585 27.896H35.1525V37.0638C35.1525 37.3694 35.0303 37.6139 34.7858 37.7361C34.5413 37.9195 34.2357 37.9806 33.869 37.9806C33.5023 37.9806 33.1967 37.9195 32.9522 37.7361C32.7078 37.5528 32.5244 37.4305 32.5244 37.1249ZM35.1525 25.7568H39.1864C42.059 25.7568 43.4647 24.4122 43.4647 21.6619C43.4647 18.9726 42.059 17.628 39.1864 17.628H35.1525V25.7568Z" fill="#32D5CB"/>
<path d="M50.0654 37.1249V16.1612C50.0654 15.8556 50.1877 15.6722 50.4321 15.4889C50.6766 15.3055 50.9822 15.2444 51.3489 15.2444C51.7156 15.2444 52.0212 15.3055 52.2657 15.4889C52.5102 15.6722 52.6324 15.8556 52.6324 16.1612V37.1249C52.6324 37.4305 52.5102 37.675 52.2657 37.7972C52.0212 37.9806 51.7156 38.0417 51.3489 38.0417C50.9822 38.0417 50.6766 37.9806 50.4321 37.7972C50.1877 37.6139 50.0654 37.4305 50.0654 37.1249Z" fill="#32D5CB"/>
<path d="M57.0938 37.1249V16.1612C57.0938 15.8556 57.216 15.6722 57.4605 15.4889C57.7049 15.3055 57.9494 15.2444 58.3161 15.2444H69.4398C69.7454 15.2444 69.9287 15.3666 70.1121 15.6111C70.2954 15.8556 70.3565 16.1 70.3565 16.4056C70.3565 16.7112 70.2954 17.0168 70.1121 17.2613C69.9287 17.5058 69.7454 17.628 69.4398 17.628H59.7219V25.5735H64.6114C64.8558 25.5735 65.1003 25.6957 65.2837 25.8791C65.467 26.0624 65.5282 26.368 65.5282 26.6736C65.5282 26.9181 65.467 27.1626 65.2837 27.407C65.1003 27.6515 64.917 27.7126 64.6114 27.7126H59.7219V35.6581H69.3786C69.6231 35.6581 69.8676 35.7803 70.0509 36.0248C70.2343 36.2693 70.2954 36.5749 70.2954 36.8805C70.2954 37.1861 70.2343 37.4916 70.0509 37.675C69.8676 37.9195 69.6842 38.0417 69.3786 38.0417H58.3161C58.0105 38.0417 57.7049 37.9806 57.4605 37.7972C57.216 37.6139 57.0938 37.4305 57.0938 37.1249Z" fill="#32D5CB"/>
<path d="M73.7793 37.1249V16.1612C73.7793 15.55 74.2071 15.2444 75.0628 15.2444C75.4906 15.2444 75.8573 15.3666 76.1629 15.6111C76.4685 15.8556 76.7741 16.2834 77.0797 16.8946L84.8418 32.1132V16.1612C84.8418 15.8556 84.964 15.6722 85.2085 15.4889C85.453 15.3055 85.7586 15.2444 86.1253 15.2444C86.492 15.2444 86.7976 15.3055 87.0421 15.4889C87.2866 15.6722 87.4088 15.8556 87.4088 16.1612V37.1249C87.4088 37.4305 87.2866 37.675 87.0421 37.7972C86.7976 37.9806 86.492 38.0417 86.1253 38.0417C85.453 38.0417 84.9029 37.675 84.4751 36.8805L76.3463 21.1729V37.1249C76.3463 37.4305 76.224 37.675 75.9796 37.7972C75.7351 37.9806 75.4295 38.0417 75.0628 38.0417C74.6961 38.0417 74.3905 37.9806 74.146 37.7972C73.9015 37.6139 73.7793 37.4305 73.7793 37.1249Z" fill="#32D5CB"/>
<path d="M91.2598 37.1246V16.1608C91.2598 15.9164 91.382 15.6719 91.5654 15.5497C91.7487 15.4274 92.0543 15.3052 92.421 15.3052H97.9217C99.9386 15.3052 101.589 15.8552 102.811 16.9554C104.034 18.0555 104.645 19.7669 104.645 22.0894V31.2572C104.645 33.5797 104.034 35.3522 102.811 36.3912C101.589 37.4913 99.9386 38.0414 97.9217 38.0414H92.421C92.0543 38.0414 91.8098 37.9803 91.5654 37.7969C91.3209 37.6136 91.2598 37.3691 91.2598 37.1246ZM93.8879 35.6578H97.9828C99.2663 35.6578 100.305 35.291 101.039 34.5576C101.772 33.8242 102.139 32.724 102.139 31.2572V22.0283C102.139 20.5614 101.772 19.4613 101.039 18.7278C100.305 17.9944 99.3275 17.6277 97.9828 17.6277H93.8879V35.6578Z" fill="#32D5CB"/>
<path d="M107.762 34.8636C107.762 34.558 107.884 34.1913 108.128 33.8857C108.373 33.5801 108.617 33.3968 108.923 33.3968C109.106 33.3968 109.351 33.519 109.656 33.7635C109.962 34.008 110.268 34.3136 110.573 34.6192C110.879 34.9247 111.368 35.2303 112.04 35.4748C112.712 35.7193 113.446 35.8415 114.301 35.8415C115.646 35.8415 116.685 35.5359 117.48 34.8636C118.274 34.1913 118.641 33.2745 118.641 31.991C118.641 30.8298 118.274 29.913 117.602 29.1796C116.868 28.4461 116.013 27.8961 115.035 27.5294C114.057 27.1627 113.018 26.7348 112.04 26.307C111.001 25.8792 110.145 25.2068 109.473 24.3512C108.74 23.4955 108.434 22.3343 108.434 20.9285C108.434 19.8284 108.617 18.9116 109.045 18.0559C109.473 17.2614 110.023 16.6502 110.695 16.2224C111.368 15.7945 112.101 15.489 112.835 15.3056C113.568 15.1222 114.363 15 115.218 15C116.502 15 117.724 15.1834 118.885 15.5501C120.047 15.9168 120.658 16.4669 120.658 17.078C120.658 17.3836 120.536 17.6892 120.352 17.9948C120.169 18.3004 119.863 18.4838 119.558 18.4838C119.497 18.4838 119.008 18.3004 118.152 17.8726C117.296 17.5059 116.318 17.2614 115.279 17.2614C113.996 17.2614 112.957 17.5059 112.223 18.0559C111.429 18.606 111.062 19.4006 111.062 20.5007C111.062 21.4786 111.429 22.212 112.101 22.8232C112.773 23.4344 113.69 23.8622 114.668 24.2289C115.646 24.5957 116.685 24.9624 117.663 25.4513C118.641 25.8792 119.497 26.6126 120.23 27.6516C120.963 28.6906 121.269 29.9741 121.269 31.5021C121.269 33.6413 120.658 35.2915 119.374 36.3305C118.091 37.3695 116.502 37.9807 114.424 37.9807C112.59 37.9807 111.001 37.614 109.718 36.8194C108.373 36.3305 107.762 35.5971 107.762 34.8636Z" fill="#32D5CB"/>
<path d="M9.53333 8.95467C8.20444 8.95467 7.10667 10.12 7.10667 11.5307V16.56V20.976V25.576H4.79556V18.4613V14.9653V11.592V2.576C4.85333 1.16533 3.75556 0 2.42667 0C1.09778 0 0 1.16533 0 2.576V14.9653V16.928V18.3387V18.4V24.9627C0 26.496 1.15556 27.784 2.65778 27.784H4.21778H4.85333H7.16444V34.4693V46C9.82222 43.1173 11.5556 39.2533 11.9022 35.0213C11.96 34.8373 11.96 34.6533 11.96 34.4693V33.488V11.5307C11.96 10.12 10.92 8.95467 9.53333 8.95467Z" fill="#F2F2F2"/>
</g>
<defs>
<clipPath id="clip0">
<rect width="1440" height="1536" fill="white" transform="translate(-44 -12)"/>
</clipPath>
</defs>
</svg>
